<svg xmlns="http://www.w3.org/2000/svg" viewBox="0 0 480 480"><path d="M480 240C480 107.45 372.55 0 240 0S0 107.45 0 240c0 119.79 87.76 219.08 202.5 237.08v-167.7h-60.94V240h60.94v-52.88c0-60.15 35.83-93.38 90.65-93.38 26.26 0 53.72 4.69 53.72 4.69v59.06h-30.26c-29.81 0-39.11 18.5-39.11 37.48V240h66.56l-10.64 69.38H277.5v167.71C392.24 459.08 480 359.79 480 240z"/><path d="M333.42 309.38L344.06 240H277.5v-45.02c0-18.98 9.3-37.48 39.11-37.48h30.26V98.44s-27.47-4.69-53.72-4.69c-54.82 0-90.65 33.22-90.65 93.38V240h-60.94v69.38h60.94v167.71C214.72 479 227.24 480 240 480s25.28-1 37.5-2.92v-167.7h55.92z" fill="#fff"/></svg>
