<svg xmlns="http://www.w3.org/2000/svg" viewBox="0 0 480 480"><path d="M150.96 452c181.14 0 280.2-163.11 280.2-304.54 0-4.64-.09-9.25-.28-13.84C450.1 118.51 466.81 99.66 480 78.2a184.493 184.493 0 01-56.55 16.85c20.33-13.25 35.94-34.22 43.3-59.21-19.03 12.26-40.1 21.18-62.53 25.98C386.25 41.01 360.65 28 332.33 28c-54.39 0-98.49 47.94-98.49 107.03 0 8.4.87 16.57 2.56 24.41-81.85-4.48-154.43-47.07-202.99-111.84-8.47 15.81-13.34 34.19-13.34 53.8 0 37.14 17.39 69.92 43.82 89.1-16.15-.54-31.33-5.36-44.6-13.39-.02.45-.02.89-.02 1.36 0 51.84 33.95 95.12 79.01 104.94a91.245 91.245 0 01-25.96 3.76c-6.34 0-12.51-.68-18.51-1.93 12.54 42.52 48.89 73.47 92 74.34-33.72 28.72-76.18 45.82-122.32 45.82-7.95 0-15.78-.49-23.49-1.48C43.58 434.28 95.33 452 150.96 452"/></svg>